<svg id="katman_1" data-name="katman 1" xmlns="http://www.w3.org/2000/svg" viewBox="0 0 34.64 40"><defs><style>.cls-1{fill:#003147;}</style></defs><path class="cls-1" d="M20,40,2.68,30V10L20,0,37.32,10V30ZM5.14,28.58,20,37.16l14.86-8.58V11.42L20,2.84,5.14,11.42Z" transform="translate(-2.68 0)"/><path class="cls-1" d="M19.89,18.82a.69.69,0,0,0-.95-.18.68.68,0,1,0,.95.18" transform="translate(-2.68 0)"/><path class="cls-1" d="M22.14,17.28a3.41,3.41,0,1,0-5.63,3.84,3.5,3.5,0,0,0,4.74.9,3.41,3.41,0,0,0,.89-4.74m-1.66,3.61a2,2,0,0,1-2.3-3.38,2.1,2.1,0,0,1,2.84.54,2.05,2.05,0,0,1-.54,2.84" transform="translate(-2.68 0)"/><path class="cls-1" d="M31.27,11.07a.69.69,0,0,0-.95-.18L22.83,16a18.47,18.47,0,0,0,3.26,3.51l5.84-3.11a.7.7,0,0,0,.35-.47,6.45,6.45,0,0,0-1-4.85" transform="translate(-2.68 0)"/><path class="cls-1" d="M22.21,23c-.07.05-.12.12-.2.17a4.74,4.74,0,0,1-4.12.58,40.77,40.77,0,0,1,1.62,6.53.69.69,0,0,0,.55.57.66.66,0,0,0,.72-.34L22,28.26l1.42.27c1.79.34-.22-4-1.24-5.55" transform="translate(-2.68 0)"/><path class="cls-1" d="M29.54,23.43a40.15,40.15,0,0,1-5.47-3.9,4.79,4.79,0,0,1-.9,2.44,13.55,13.55,0,0,1,2.14,4.72c.11.44,1.05.46,1.19-.24L26.77,25l2.53-.34a.7.7,0,0,0,.58-.55.68.68,0,0,0-.34-.72" transform="translate(-2.68 0)"/><path class="cls-1" d="M15.05,21.28l-7.48,5.1a.67.67,0,0,0-.18.95,6.44,6.44,0,0,0,4.14,2.72.7.7,0,0,0,.57-.16l5-4.29a18.32,18.32,0,0,0-2.08-4.32" transform="translate(-2.68 0)"/><path class="cls-1" d="M26.23,9.17a.7.7,0,0,0-.59.15l-6.05,5.14a4.8,4.8,0,0,1,2.15.64c.5-.37,6.44-4.4,7-4.75a6.42,6.42,0,0,0-2.47-1.18" transform="translate(-2.68 0)"/><path class="cls-1" d="M14.88,17.49l-7,3.75a.69.69,0,0,0-.35.48,6.52,6.52,0,0,0,.16,3l7-4.75a4.79,4.79,0,0,1,.26-2.43" transform="translate(-2.68 0)"/></svg>