<svg id="katman_1" data-name="katman 1" xmlns="http://www.w3.org/2000/svg" viewBox="0 0 34.64 40"><defs><style>.cls-1{fill:#fff;}</style></defs><path class="cls-1" d="M20,12a5.11,5.11,0,0,0-5.11,5.11A5,5,0,0,0,16,20.35a4.3,4.3,0,0,1,1.83-1.94,2.86,2.86,0,0,1-.82-2,2.92,2.92,0,1,1,5,2,4.4,4.4,0,0,1,1.83,1.94A5.08,5.08,0,0,0,20,12" transform="translate(-2.68)"/><path class="cls-1" d="M20,14.94a1.46,1.46,0,1,0,1.45,1.46A1.46,1.46,0,0,0,20,14.94" transform="translate(-2.68)"/><path class="cls-1" d="M30.75,16.68l-1.57-2,.35-2.54a.73.73,0,0,0-.45-.77l-2.37-1L25.74,8A.73.73,0,0,0,25,7.56l-2.54.35-2-1.62a.74.74,0,0,0-.89,0l-2,1.62L15,7.56a.73.73,0,0,0-.77.45l-1,2.37-2.37,1a.73.73,0,0,0-.45.77l.35,2.54-1.57,2a.74.74,0,0,0,0,.89l1.57,2-.35,2.53a.73.73,0,0,0,.45.77l2.37,1,1,2.37a.73.73,0,0,0,.77.45l2.54-.35,2,1.57a.74.74,0,0,0,.89,0l2-1.57,2.54.35a.73.73,0,0,0,.77-.45l1-2.37,2.37-1a.73.73,0,0,0,.45-.77l-.35-2.53,1.57-2a.74.74,0,0,0,0-.89M20,23.69a6.56,6.56,0,1,1,6.56-6.56A6.59,6.59,0,0,1,20,23.69" transform="translate(-2.68)"/><path class="cls-1" d="M20,19.31a2.92,2.92,0,0,0-2.79,2.08,5,5,0,0,0,5.57,0A2.92,2.92,0,0,0,20,19.31" transform="translate(-2.68)"/><path class="cls-1" d="M32.19,25.36l-1.76-1.71a2.09,2.09,0,0,1-.8.6l-1.8.74-.74,1.8a2.18,2.18,0,0,1-2,1.36H24.8l-.33-.05L27,30.8a.74.74,0,0,0,.73.2.73.73,0,0,0,.51-.56l.64-3.22,3-.63a.73.73,0,0,0,.36-1.23" transform="translate(-2.68)"/><path class="cls-1" d="M15.06,28.15h-.19a2.18,2.18,0,0,1-2-1.36L12.1,25l-1.8-.74a2.09,2.09,0,0,1-.8-.6L7.74,25.36a.74.74,0,0,0-.19.72.75.75,0,0,0,.55.51l3,.62.63,3.23a.73.73,0,0,0,.51.56.75.75,0,0,0,.74-.2l2.5-2.71Z" transform="translate(-2.68)"/><path class="cls-1" d="M20,40,2.68,30V10L20,0,37.32,10V30ZM5.14,28.58,20,37.16l14.86-8.58V11.42L20,2.84,5.14,11.42Z" transform="translate(-2.68)"/></svg>