<?xml version="1.0" encoding="utf-8"?>
<!-- Generator: Adobe Illustrator 25.4.1, SVG Export Plug-In . SVG Version: 6.00 Build 0)  -->
<svg version="1.1" id="katman_1" xmlns="http://www.w3.org/2000/svg" xmlns:xlink="http://www.w3.org/1999/xlink" x="0px" y="0px"
	 viewBox="0 0 34.6 40" style="enable-background:new 0 0 34.6 40;" xml:space="preserve">
<style type="text/css">
	.st0{fill:#fff;}
	.st1{fill:#fff;}
</style>
<path class="st0" d="M17.8,40L0.4,30V10L17.8,0l17.3,10v20L17.8,40z M2.9,28.6l14.9,8.6l14.9-8.6V11.4L17.8,2.8L2.9,11.4V28.6z"/>
<g>
	<g>
		<path class="st1" d="M15.4,19.7c0,0-1.3-0.2-2.8,0s-3,0.3-5.3-2.2s-2.6-2.7-2.6-2.7s0.7,0.4,4.3-1c2.2-0.9,4.4-0.1,5.8,3.5
			c0,0-2.3-2.4-4.6-1.5C10.4,15.8,13.5,16.4,15.4,19.7z"/>
		<path class="st1" d="M17.7,14.6c0,0,0.3-1,1-2c0.6-1,1.3-2,0.3-4.6s-1-2.8-1-2.8S18,5.9,15.6,8c-1.4,1.3-1.6,3.2,0.5,5.4
			c0,0-0.9-2.5,0.6-3.8C16.7,9.6,16,12.1,17.7,14.6z"/>
		<path class="st1" d="M20.6,16c0,0,0.7-0.4,1.6-0.5s1.7-0.4,2.5-2.3c0.8-1.9,0.9-2,0.9-2s-0.3,0.4-2.6,0.3
			c-1.4-0.1-2.5,0.8-2.6,3.1c0,0,0.9-1.8,2.3-1.7C22.7,12.8,21,13.7,20.6,16z"/>
		<path class="st1" d="M25.1,16.8c0,0,0.7-0.1,1.5,0c0.8,0.1,1.6,0.1,2.8-1.2c1.2-1.4,1.3-1.4,1.3-1.4s-0.4,0.2-2.3-0.5
			c-1.2-0.5-2.4,0-3.1,1.9c0,0,1.2-1.3,2.4-0.8C27.7,14.7,26.1,15,25.1,16.8z"/>
		<path class="st1" d="M22.6,19.5c0,0,0.7,0.2,1.3,0.7c0.7,0.4,1.3,0.9,3,0.2s1.9-0.6,1.9-0.6s-0.4,0-1.8-1.5
			c-0.8-1-2.1-1.1-3.6,0.3c0,0,1.7-0.6,2.5,0.4C26,18.9,24.3,18.4,22.6,19.5z"/>
		<path class="st1" d="M12.8,13c0,0-0.7-0.3-1.5-0.5c-0.8-0.2-1.6-0.4-2.4-2S8,8.9,8,8.9s0.3,0.3,2.4,0.4c1.3,0.1,2.3,0.8,2.5,2.6
			c0,0-0.9-1.5-2.2-1.5C10.7,10.4,12.3,11.3,12.8,13z"/>
		<path class="st1" d="M5.7,29.9c0.1,0,0.2,0,0.2-0.1c1-1.4,2.4-2.4,3.9-3.1c1.8-0.9,3.8-1.5,5.8-1.7c0.1,0,0.2,0,0.2-0.1
			c0.4-1.6,0.7-3.2,0.7-4.9c-0.1-2.3-0.9-4.5-2.3-6.3c-0.2-0.3-0.4-0.6-0.7-0.9c1.9,0.9,3.3,2.2,4.2,4c0.5-0.7,0.9-1.3,1.3-1.9
			c0,0,0,0,0,0c0,0.2-0.1,0.4-0.1,0.5c-0.2,0.8-0.4,1.7-0.6,2.5c0,0.1,0,0.2,0,0.3c0.6,1.6,0.8,3.2,0.9,4.9c0,0.6,0.1,1.2,0.1,1.8
			c0,0.1,0,0.2,0.2,0.2c1.9,0.2,3.8,0.6,5.5,1.4c1.5,0.7,2.9,1.6,4,2.9c0.2,0.2,0.3,0.4,0.4,0.5c0,0.1,0.1,0.1,0.2,0.1l-0.3,0
			c-2.5-1-5.1-1.6-7.7-1.9c-2.6-0.3-5.3-0.3-7.9,0C11,28.3,8.4,28.9,6,29.9L5.7,29.9z"/>
		<path class="st1" d="M19.5,21.2c0,0,0-0.8-0.4-1.9c0,0,2.5-2.3,5.4-2.8C24.4,16.4,21.4,18.5,19.5,21.2z"/>
	</g>
</g>
</svg>
