<svg id="katman_1" data-name="katman 1" xmlns="http://www.w3.org/2000/svg" viewBox="0 0 34.64 40"><defs><style>.cls-1{fill:#003147;}.cls-2{fill:#003147;}</style></defs><path class="cls-1" d="M20.56,40,3.24,30V10L20.56,0,37.88,10V30ZM5.7,28.58l14.86,8.58,14.86-8.58V11.42L20.56,2.84,5.7,11.42Z" transform="translate(-3.24 0)"/><path class="cls-2" d="M28.52,12.74a1.91,1.91,0,0,0-1.33-1.84,2.82,2.82,0,0,0-2.54-2.68,2.39,2.39,0,0,0-1.93,1.1,2.25,2.25,0,0,0-3.87,0,2.4,2.4,0,0,0-1.94-1.1,2.81,2.81,0,0,0-2.52,2.58H15.7c.18-.73.67-1.29,1.21-1.29s1,.56,1.22,1.29H15.7a2.81,2.81,0,0,0-.07.65c0,1,.59,1.93,1.28,1.93a.65.65,0,1,1,0,1.29c-1.41,0-2.58-1.44-2.58-3.22a3.49,3.49,0,0,1,.06-.65h-.74a2,2,0,0,0-2,1.94V16H28.52Zm-7.74,1.93c-1.42,0-2.58-1.44-2.58-3.22a3.49,3.49,0,0,1,.06-.65h1.18a3.49,3.49,0,0,1,0,.65c0,1,.6,1.93,1.29,1.93a.65.65,0,1,1,0,1.29M19.57,10.8c.18-.73.67-1.29,1.21-1.29s1,.56,1.21,1.29Zm5.08,3.87c-1.42,0-2.58-1.44-2.58-3.22a3.49,3.49,0,0,1,.05-.65h1.19a3.49,3.49,0,0,1,.05.65c0,1,.59,1.93,1.29,1.93a.65.65,0,1,1,0,1.29M23.44,10.8c.18-.73.67-1.29,1.21-1.29s1,.56,1.21,1.29Z" transform="translate(-3.24 0)"/><path class="cls-2" d="M12.31,30.23H27.87a.65.65,0,0,0,.65-.64V23.47l-2.78,2.79a2.06,2.06,0,0,1-.5.36l-1.83.91a1.94,1.94,0,0,1-1.65,0H15a.64.64,0,0,1-.64-.65.63.63,0,0,1,.64-.64h5.71a1.92,1.92,0,0,1,.13-1.35l.91-1.82a2.08,2.08,0,0,1,.37-.51l5.35-5.35H11.67V29.59a.64.64,0,0,0,.64.64" transform="translate(-3.24 0)"/><path class="cls-2" d="M22.88,23.68,22,25.51a.64.64,0,0,0,.12.75.63.63,0,0,0,.74.12l1.83-.92a.45.45,0,0,0,.17-.11L23,23.52a.83.83,0,0,0-.12.16" transform="translate(-3.24 0)"/><polygon class="cls-2" points="22.02 24.84 27.5 19.37 25.67 17.54 20.2 23.02 22.02 24.84"/><path class="cls-2" d="M33,17.09a.66.66,0,0,0,0-.92l-.91-.9a.63.63,0,0,0-.91,0l-1.37,1.37,1.82,1.81Z" transform="translate(-3.24 0)"/></svg>