<svg id="katman_1" data-name="katman 1" xmlns="http://www.w3.org/2000/svg" viewBox="0 0 34.64 40"><defs><style>.cls-1{fill:#fff;}</style></defs><path class="cls-1" d="M20,40,2.68,30V10L20,0,37.32,10V30ZM5.14,28.58,20,37.16l14.86-8.58V11.42L20,2.84,5.14,11.42Z" transform="translate(-2.68)"/><path class="cls-1" d="M9.79,27.94H30.21a1.86,1.86,0,0,0,1.87-1.86V24.93H30.49V13a1.7,1.7,0,0,0-1.7-1.69H11.21A1.7,1.7,0,0,0,9.51,13V24.93H7.92v1.15A1.87,1.87,0,0,0,9.79,27.94Zm2-14.28H28.18V24.93H22.27V25a.64.64,0,0,1-.65.64H18.38a.64.64,0,0,1-.65-.64v-.11H11.82Zm7.43,9.55v.72a.32.32,0,0,0,.32.32h.87a.32.32,0,0,0,.31-.32v-.72a3.73,3.73,0,0,0,1.39-.58l.51.51a.31.31,0,0,0,.45,0l.61-.61a.33.33,0,0,0,0-.45l-.51-.51a3.73,3.73,0,0,0,.58-1.39h.72a.31.31,0,0,0,.32-.31V19a.32.32,0,0,0-.32-.32h-.72a3.88,3.88,0,0,0-.58-1.39l.51-.5a.33.33,0,0,0,0-.45l-.61-.61a.31.31,0,0,0-.45,0l-.51.5a3.72,3.72,0,0,0-1.39-.57v-.72a.31.31,0,0,0-.31-.32h-.87a.32.32,0,0,0-.32.32v.71a3.88,3.88,0,0,0-1.39.58l-.51-.51a.31.31,0,0,0-.44,0l-.62.61a.33.33,0,0,0,0,.45l.51.51a3.72,3.72,0,0,0-.57,1.39h-.72a.31.31,0,0,0-.32.31v.87a.32.32,0,0,0,.32.32h.72a3.79,3.79,0,0,0,.57,1.39l-.51.51a.33.33,0,0,0,0,.45l.62.61a.31.31,0,0,0,.44,0l.51-.51A3.88,3.88,0,0,0,19.25,23.21ZM20,17.69a1.74,1.74,0,1,1-1.74,1.74A1.74,1.74,0,0,1,20,17.69Z" transform="translate(-2.68)"/></svg>