<svg id="katman_1" data-name="katman 1" xmlns="http://www.w3.org/2000/svg" viewBox="0 0 34.64 40"><defs><style>.cls-1{fill:#fff;}.cls-2{fill:#fff;}</style></defs><path class="cls-1" d="M20.6,40,3.28,30V10L20.6,0,37.92,10V30ZM5.74,28.58,20.6,37.16l14.87-8.58V11.42L20.6,2.84,5.74,11.42Z" transform="translate(-3.28 0)"/><path class="cls-2" d="M13.49,12.58a.87.87,0,0,1-.84.89H10.83a.89.89,0,0,1,0-1.77h1.82a.87.87,0,0,1,.84.88m0,5a.87.87,0,0,0-.84-.89H10.83a.89.89,0,0,0,0,1.77h1.82a.87.87,0,0,0,.84-.88m0,4.94a.87.87,0,0,0-.84-.89H10.83a.86.86,0,0,0-.84.89.85.85,0,0,0,.84.88h1.82a.86.86,0,0,0,.84-.88m0,4.94a.86.86,0,0,0-.84-.88H10.83a.85.85,0,0,0-.84.88.86.86,0,0,0,.84.89h1.82a.87.87,0,0,0,.84-.89m16.6-17.25V29.84a1,1,0,0,1-1,1H12.72a1,1,0,0,1-1-1V29h.9a1.59,1.59,0,0,0,0-3.17h-.9V24.05h.9a1.58,1.58,0,0,0,0-3.16h-.9V19.11h.9a1.58,1.58,0,0,0,0-3.16h-.9V14.17h.9a1.59,1.59,0,0,0,0-3.17h-.9v-.84a1,1,0,0,1,1-1h16.4a1,1,0,0,1,1,1m-11,7.24c0-.29.2-.6.44-.56a6.48,6.48,0,0,1,1.15.64c.64.33,1.68-2.22,1.2-2.52a8.87,8.87,0,0,0-1.12-.72,1.74,1.74,0,0,0-.22-.05c-1.68-.37-3.38,1.07-3.55,3.25-.08.83-.11,1.66-.13,2.49h0v.13h0c0,.84.05,1.67.13,2.5.17,2.17,1.87,3.62,3.55,3.24a.85.85,0,0,0,.22,0A8.87,8.87,0,0,0,21.92,25c.48-.3-.56-2.85-1.2-2.52a5.9,5.9,0,0,1-1.15.64c-.23,0-.42-.28-.44-.57-.06-.75,0-1.72,0-2.52h0v-.14h0c0-.8-.06-1.77,0-2.53m4.16,4.78a3.09,3.09,0,0,0,0-4.36l-.64.64a2.18,2.18,0,0,1,0,3.08Zm1.14,1.13a4.68,4.68,0,0,0,0-6.62l-.64.64a3.77,3.77,0,0,1,0,5.34Zm1.1-7.73-.64.64a5.34,5.34,0,0,1,0,7.56l.64.64a6.25,6.25,0,0,0,0-8.84" transform="translate(-3.28 0)"/></svg>