<svg id="katman_1" data-name="katman 1" xmlns="http://www.w3.org/2000/svg" viewBox="0 0 34.64 40"><defs><style>.cls-1{fill:#fff;}.cls-2{fill:#fff;}</style></defs><path class="cls-1" d="M19.49,40,2.17,30V10L19.49,0,36.81,10V30ZM4.63,28.58l14.86,8.58,14.86-8.58V11.42L19.49,2.84,4.63,11.42Z" transform="translate(-2.17)"/><path class="cls-2" d="M21.77,22.91,12.49,24l1.85,4.2c.86,1.94,5.21,1.9,9.73-.1s7.47-5.17,6.62-7.11l0,0-1.83-4.15Z" transform="translate(-2.17)"/><path class="cls-2" d="M5.69,23.54l3.38-.24,0-.65,1-.56.22.09-.82.63,0,.45s-.16,5.26,1.08,7.25a2.9,2.9,0,0,0,2.59-1.14l-2.21-6-.22-.49,1.74-1.28V22l-1.23,1.11.77-.06L21.37,22l7.06-6.12,4.65-4.41-16,.77Z" transform="translate(-2.17)"/></svg>