<svg id="katman_1" data-name="katman 1" xmlns="http://www.w3.org/2000/svg" xmlns:xlink="http://www.w3.org/1999/xlink" viewBox="0 0 34.64 40"><defs><style>.cls-1{fill:003147;}.cls-2{fill:#003147;}.cls-3{clip-path:url(#clip-path);}</style><clipPath id="clip-path" transform="translate(-2.68)"><rect class="cls-1" x="6.48" y="7.22" width="25" height="24.89" transform="translate(-4.71 33.28) rotate(-75.91)"/></clipPath></defs><path class="cls-2" d="M20,40,2.68,30V10L20,0,37.32,10V30ZM5.14,28.58,20,37.16l14.86-8.58V11.42L20,2.84,5.14,11.42Z" transform="translate(-2.68)"/><g class="cls-3"><path class="cls-2" d="M20,16.08a3.9,3.9,0,0,1,.48.17l1.45-.87a5,5,0,0,0-1.57-.72A5.11,5.11,0,1,0,24,20.86a4.79,4.79,0,0,0,.11-1.72L22.7,20a4.29,4.29,0,0,1-.07.5A3.66,3.66,0,1,1,20,16.08" transform="translate(-2.68)"/><path class="cls-2" d="M16,31.75a12.5,12.5,0,0,0,15.08-9.11,12.28,12.28,0,0,0,.14-5.36L30.13,18a2.15,2.15,0,0,1-1.66.25h0a9.34,9.34,0,0,1-.16,3.72,9.49,9.49,0,1,1-6.9-11.52A9.61,9.61,0,0,1,24.75,12v0a2.14,2.14,0,0,1,1-1.35L26.89,10A12.12,12.12,0,0,0,22.1,7.58,12.46,12.46,0,1,0,16,31.75" transform="translate(-2.68)"/><path class="cls-2" d="M29.38,16.71l3.54-2.12a.72.72,0,0,0,.35-.73.74.74,0,0,0-.54-.61l-2.13-.53.53-2.12a.7.7,0,0,0-.27-.76.73.73,0,0,0-.81-.05l-3.54,2.13a.74.74,0,0,0-.34.44l-.63,2.55-5.07,3a2.11,2.11,0,0,0-.85-.45,2.19,2.19,0,1,0,1.59,2.66,2.08,2.08,0,0,0,0-1l5.07-3,2.54.63a.71.71,0,0,0,.55-.08" transform="translate(-2.68)"/></g><path class="cls-2" d="M24.17,14l.09-.36a8,8,0,1,0,2.52,8,8,8,0,0,0,0-3.76l-.36-.09-1,.6a6.42,6.42,0,0,1-.05,2.89,6.62,6.62,0,1,1-2.2-6.65Z" transform="translate(-2.68)"/></svg>