<svg id="katman_1" data-name="katman 1" xmlns="http://www.w3.org/2000/svg" viewBox="0 0 34.64 40"><defs><style>.cls-1{fill:#003147;}</style></defs><path class="cls-1" d="M19,22.56l-1.88-3.19A1.79,1.79,0,0,0,17,21.61a1.77,1.77,0,0,0,2,.95" transform="translate(-2.42)"/><path class="cls-1" d="M15.89,22.26a3,3,0,0,1,.61-4l-1.25-2.13A27.82,27.82,0,0,0,6.9,26.82l5.41-3.19L13,24.72,7.54,27.91a27.79,27.79,0,0,0,13.38-2.13l-1.25-2.12a3,3,0,0,1-3.78-1.4" transform="translate(-2.42)"/><polygon class="cls-1" points="23.3 26.47 21.56 26.02 14.1 13.36 14.55 11.62 12.14 7.49 8.86 9.41 11.3 13.54 13.03 13.99 20.48 26.65 20.03 28.38 22.46 32.51 25.74 30.59 23.3 26.47"/><path class="cls-1" d="M32.32,13.15l.27-.72-.77-.12a25.6,25.6,0,0,0-5.64-.06l3.45,5.87a26.38,26.38,0,0,0,2.69-5" transform="translate(-2.42)"/><path class="cls-1" d="M22.07,16.67a2.35,2.35,0,0,1,1.71,2.89,4.57,4.57,0,0,1-1.07,1.79l1.48,2.51a22.75,22.75,0,0,0,4.63-4.62l-4-6.83a22.94,22.94,0,0,0-6.28,1.81L20,16.73a4.42,4.42,0,0,1,2.07-.06" transform="translate(-2.42)"/><path class="cls-1" d="M21.76,17.9a2.59,2.59,0,0,0-1.08,0L22,20.2a2.81,2.81,0,0,0,.51-1,1.06,1.06,0,0,0-.1-.84,1.08,1.08,0,0,0-.69-.5" transform="translate(-2.42)"/><path class="cls-1" d="M19.74,40,2.42,30V10L19.74,0,37.07,10V30ZM4.88,28.58l14.86,8.58,14.87-8.58V11.42L19.74,2.84,4.88,11.42Z" transform="translate(-2.42)"/></svg>