<svg id="katman_1" data-name="katman 1" xmlns="http://www.w3.org/2000/svg" xmlns:xlink="http://www.w3.org/1999/xlink" viewBox="0 0 34.64 40"><defs><style>.cls-1{fill:fff;}.cls-2{fill:#fff;}.cls-3{clip-path:url(#clip-path);}</style><clipPath id="clip-path" transform="translate(-2.68 0)"><rect class="cls-1" x="10.81" y="5.73" width="18.38" height="24.16"/></clipPath></defs><path class="cls-2" d="M20,40,2.68,30V10L20,0,37.32,10V30ZM5.14,28.58,20,37.16l14.86-8.58V11.42L20,2.84,5.14,11.42Z" transform="translate(-2.68 0)"/><path class="cls-2" d="M29.18,27.16c-.09-5.68-.83-7.3-6.52-8.33a3.4,3.4,0,0,1-2.66,1,3.4,3.4,0,0,1-2.66-1c-5.62,1-6.41,2.61-6.52,8.15,0,.45,0,.47,0,.42V28s1.35,2.72,9.19,2.72S29.19,28,29.19,28v-.44s0,0,0-.4" transform="translate(-2.68 0)"/><g class="cls-3"><path class="cls-2" d="M20,19.22c2.69,0,4.87-2.65,4.87-5.91S24.15,7.4,20,7.4,15.13,10,15.13,13.31s2.18,5.91,4.87,5.91" transform="translate(-2.68 0)"/><path d="M10.81,26.57h0" transform="translate(-2.68 0)"/></g></svg>