<svg id="katman_1" data-name="katman 1" xmlns="http://www.w3.org/2000/svg" viewBox="0 0 34.64 40"><defs><style>.cls-1{fill:#003147;}</style></defs><path class="cls-1" d="M20,40,2.68,30V10L20,0,37.32,10V30ZM5.14,28.58,20,37.16l14.86-8.58V11.42L20,2.84,5.14,11.42Z" transform="translate(-2.68 0)"/><path class="cls-1" d="M26.59,21.37a.43.43,0,0,0-.59-.09.45.45,0,0,0-.16.28l-.23,1.62s0,0,0,.06a7.23,7.23,0,0,0,1-1.85Z" transform="translate(-2.68 0)"/><path class="cls-1" d="M25.2,23.54h-.06l-2.48-.36a.4.4,0,0,1-.35-.47l.23-1.62a.43.43,0,0,0-.36-.48.44.44,0,0,0-.3.08l-1.32,1a.42.42,0,0,1-.58-.09l-1.5-2a.41.41,0,0,1,.08-.58l1.31-1a.42.42,0,0,0,.09-.59.45.45,0,0,0-.28-.16l-1.62-.23a.41.41,0,0,1-.35-.47l.35-2.48a.4.4,0,0,1,.47-.35h0l1.62.23a.43.43,0,0,0,.42-.2.42.42,0,0,0,0-.47l-1-1.31a.42.42,0,0,1,.09-.58l.23-.18a10.85,10.85,0,0,0-1.14,0,7.51,7.51,0,0,0-3.2,13.78,2.4,2.4,0,0,1,1.13,2v1.69A1.25,1.25,0,0,0,17.92,30h3.34a1.25,1.25,0,0,0,1.25-1.25V27.09A2.44,2.44,0,0,1,23.66,25a7.63,7.63,0,0,0,1.74-1.56.47.47,0,0,1-.2.06M20,28.74h-.84V27.49H20Zm-.84-2.09a2.65,2.65,0,0,0-1.71-2.48,5.84,5.84,0,0,1-1-10.38l.44.71a5,5,0,0,0,.84,8.89A3.49,3.49,0,0,1,20,26.65Z" transform="translate(-2.68 0)"/><path class="cls-1" d="M17.92,32.07v.42a.84.84,0,0,0,.84.83h1.66a.84.84,0,0,0,.84-.83v-.42Z" transform="translate(-2.68 0)"/><path class="cls-1" d="M15.32,25.4a7.3,7.3,0,0,1-.72-.52,2.49,2.49,0,1,1-2.52-3.62,8.85,8.85,0,0,1-.33-1.42l-.07.35a.83.83,0,0,1-1,.64.67.67,0,0,1-.3-.13l-.87-.59-.76.76.6.87a.82.82,0,0,1-.21,1.15.67.67,0,0,1-.3.13l-1,.22v1l1,.22a.83.83,0,0,1,.64,1,.81.81,0,0,1-.13.3l-.6.86.76.76.87-.6a.84.84,0,0,1,1.16.22.81.81,0,0,1,.13.3l.22,1h1l.22-1a.82.82,0,0,1,1-.64.72.72,0,0,1,.3.13l.86.59.9-.89a2.07,2.07,0,0,0-.84-1.07" transform="translate(-2.68 0)"/><rect class="cls-1" x="15.24" y="30.41" width="3.34" height="0.83"/><path class="cls-1" d="M30,16.23a1.25,1.25,0,0,1-1.06-1.42,1.24,1.24,0,0,1,.49-.82l1-.73-1-1.34-1,.74a1.24,1.24,0,0,1-1.74-.26,1.22,1.22,0,0,1-.24-.92l.17-1.21L25,10l-.17,1.21a1.26,1.26,0,0,1-1.42,1.07,1.28,1.28,0,0,1-.82-.49l-.74-1-1.33,1,.73,1A1.24,1.24,0,0,1,21,14.57a1.21,1.21,0,0,1-.92.23l-1.21-.17-.24,1.65,1.21.17a1.25,1.25,0,0,1,1.06,1.42,1.24,1.24,0,0,1-.49.82l-1,.74,1,1.33,1-.73a1.25,1.25,0,0,1,1.75.25,1.23,1.23,0,0,1,.24.93l-.17,1.2,1.65.24L25,21.44a1.26,1.26,0,0,1,1.42-1.06,1.28,1.28,0,0,1,.83.49l.73,1,1.33-1-.73-1a1.24,1.24,0,0,1,.25-1.75,1.22,1.22,0,0,1,.92-.24l1.21.17.24-1.65Zm-5.1,2.61a2.5,2.5,0,1,1,2.5-2.5,2.5,2.5,0,0,1-2.5,2.5" transform="translate(-2.68 0)"/><rect class="cls-1" x="24.83" y="24.57" width="2.92" height="0.83"/><rect class="cls-1" x="27.93" y="26.48" width="0.83" height="3.26" transform="translate(-14.08 31.9) rotate(-50.21)"/><rect class="cls-1" x="22.33" y="27.9" width="0.83" height="2.92"/><polygon class="cls-1" points="4.72 16.24 8.05 15.41 8.26 16.22 4.92 17.05 4.72 16.24"/><rect class="cls-1" x="9.38" y="10.89" width="0.83" height="3.59" transform="translate(-8.9 13.27) rotate(-54.41)"/><rect class="cls-1" x="12.08" y="9.09" width="0.83" height="3.44" transform="translate(-4.97 3.43) rotate(-14.34)"/></svg>