<svg id="katman_1" data-name="katman 1" xmlns="http://www.w3.org/2000/svg" viewBox="0 0 34.64 40"><defs><style>.cls-1{fill:#003147;}</style></defs><path class="cls-1" d="M20,40,2.68,30V10L20,0,37.32,10V30ZM5.14,28.58,20,37.16l14.86-8.58V11.42L20,2.84,5.14,11.42Z" transform="translate(-2.68)"/><path class="cls-1" d="M26.76,30.29H24.57L24.12,29H16l-.44,1.33h-2.2a.67.67,0,0,0,0,1.34H26.76a.67.67,0,1,0,0-1.34" transform="translate(-2.68)"/><path class="cls-1" d="M26.76,14.23a.67.67,0,1,0,.67.67.67.67,0,0,0-.67-.67" transform="translate(-2.68)"/><path class="cls-1" d="M29.44,10.21H10.65a2,2,0,0,0-2,2V23.6H12.7v-2a.67.67,0,0,1,.67-.67h1c.07-.19.15-.38.23-.57l-.73-.73a.68.68,0,0,1,0-.95l1.9-1.89a.66.66,0,0,1,.94,0l.74.73a4.87,4.87,0,0,1,.57-.24v-1a.67.67,0,0,1,.67-.67h2.68a.67.67,0,0,1,.67.67v1q.29.11.57.24l.73-.73a.68.68,0,0,1,.95,0l1.89,1.89a.68.68,0,0,1,0,.95l-.73.73q.14.28.24.57h1a.67.67,0,0,1,.67.67v2h4.06V12.22a2,2,0,0,0-2-2m-2.68,6.7a2,2,0,1,1,2-2,2,2,0,0,1-2,2" transform="translate(-2.68)"/><path class="cls-1" d="M18.06,22.93a1.9,1.9,0,0,0,.13.67H22a2.15,2.15,0,0,0,.13-.67,2,2,0,0,0-4,0" transform="translate(-2.68)"/><path class="cls-1" d="M15.55,21.76a.68.68,0,0,1-.65.5H14V23.6h2.77a3,3,0,0,1-.09-.67,3.35,3.35,0,1,1,6.69,0,3.72,3.72,0,0,1-.08.67h2.76V22.26h-.86a.68.68,0,0,1-.65-.5,4.27,4.27,0,0,0-.49-1.19.68.68,0,0,1,.1-.82l.61-.6-.95-.95-.61.61a.66.66,0,0,1-.81.1,4.93,4.93,0,0,0-1.19-.5.66.66,0,0,1-.5-.65v-.85H19.4v.85a.66.66,0,0,1-.51.65,4.93,4.93,0,0,0-1.19.5.66.66,0,0,1-.81-.1l-.61-.61-1,.95.61.6a.68.68,0,0,1,.11.82,4.3,4.3,0,0,0-.5,1.19" transform="translate(-2.68)"/><path class="cls-1" d="M8.64,25.61a2,2,0,0,0,2,2H29.44a2.05,2.05,0,0,0,2-2v-.67H8.64Z" transform="translate(-2.68)"/></svg>